<svg width="10" height="5" viewBox="0 0 10 5" fill="none" xmlns="http://www.w3.org/2000/svg">
<path d="M8.49699 1.69062H8.49837C8.30053 2.06587 8.00321 2.43331 7.6125 2.76176C6.85909 3.39512 5.86357 3.78812 4.88774 3.77457C3.99917 3.76118 3.04651 3.35134 2.31324 2.70362C1.94968 2.38247 1.67438 2.03498 1.48866 1.69062H1.4963H1.51524H1.53418H1.55312H1.57206H1.591H1.60994H1.62888H1.64781H1.66675H1.68569H1.70463H1.72357H1.74251H1.76145H1.78039H1.79933H1.81826H1.8372H1.85614H1.87508H1.89402H1.91296H1.9319H1.95083H1.96977H1.98871H2.00765H2.02659H2.04553H2.06446H2.0834H2.10234H2.12128H2.14022H2.15915H2.17809H2.19703H2.21597H2.23491H2.25384H2.27278H2.29172H2.31066H2.32959H2.34853H2.36747H2.3864H2.40534H2.42428H2.44322H2.46215H2.48109H2.50003H2.51896H2.5379H2.55684H2.57577H2.59471H2.61365H2.63258H2.65152H2.67045H2.68939H2.70833H2.72726H2.7462H2.76513H2.78407H2.80301H2.82194H2.84088H2.85981H2.87875H2.89768H2.91662H2.93555H2.95449H2.97342H2.99236H3.01129H3.03023H3.04916H3.0681H3.08703H3.10597H3.1249H3.14384H3.16277H3.1817H3.20064H3.21957H3.23851H3.25744H3.27637H3.29531H3.31424H3.33317H3.35211H3.37104H3.38997H3.40891H3.48464H3.6361H3.78755H3.939H4.01472H4.03365H4.05258H4.09044H4.24187H4.3933H4.54471H4.69612H4.84753H4.99892H5.07461H5.11246H5.13138H5.15031H5.30168H5.45305H5.60441H5.75576H5.83143H5.85035H5.86926H5.9071H6.05843H6.20974H6.36105H6.4367H6.47453H6.49344H6.51235H6.66363H6.68254H6.70145H6.72036H6.73927H6.75818H6.77709H6.796H6.81491H6.83382H6.85273H6.87163H6.89054H6.90945H6.92836H6.94726H6.96617H6.98508H7.00399H7.02289H7.0418H7.06071H7.07961H7.09852H7.11742H7.13633H7.15523H7.17414H7.19304H7.21195H7.23085H7.24976H7.26866H7.28757H7.30647H7.32537H7.34428H7.36318H7.38208H7.40098H7.41989H7.43879H7.45769H7.47659H7.4955H7.5144H7.5333H7.5522H7.5711H7.59H7.6089H7.6278H7.6467H7.6656H7.6845H7.7034H7.7223H7.7412H7.7601H7.779H7.7979H7.81679H7.83569H7.85459H7.87349H7.89238H7.91128H7.93018H7.94908H7.96797H7.98687H8.00576H8.02466H8.04356H8.06245H8.08135H8.10024H8.11914H8.13803H8.15693H8.17582H8.19471H8.21361H8.2325H8.25139H8.27029H8.28918H8.30807H8.32697H8.34586H8.36475H8.38364H8.40253H8.42142H8.44031H8.45921H8.4781H8.49699Z" stroke="#D5D5DC" stroke-width="2.1"/>
</svg>
