<svg width="26" height="13" viewBox="0 0 26 13" fill="none" xmlns="http://www.w3.org/2000/svg">
<path d="M21.1948 10.0713L21.1953 10.0711C22.411 9.37066 23.3498 8.57356 23.9881 7.63153C24.6179 6.70202 24.9894 5.58173 25 4.16664C24.9983 2.65553 23.8722 1.13251 21.9944 1.18087C19.8821 1.24412 17.7591 1.22982 15.6577 1.21567C14.7659 1.20966 13.878 1.20368 12.9965 1.20366C10.9092 1.2186 8.80788 1.21362 6.70876 1.20864C5.66228 1.20616 4.61634 1.20367 3.57297 1.20366C2.27399 1.22265 1.22941 2.15904 1.06823 3.40226L1.06819 3.40262C0.885292 4.80935 1.05584 6.09044 1.74787 7.23779C2.63474 8.69894 3.97236 9.7077 5.58604 10.4846L21.1948 10.0713ZM21.1948 10.0713C18.678 11.5232 15.8565 12.0208 12.8644 11.9992L21.1948 10.0713ZM12.8642 11.9992C10.2898 11.9775 7.84023 11.5678 5.58624 10.4847L12.8642 11.9992Z" stroke="#D5D5DC" stroke-width="2"/>
</svg>
